# xmcd CD database file
#
# Track frame offsets:
#	183
#	19530
#	42943
#	59863
#	81300
#	104040
#	124755
#
# Disc length: 2145 seconds
#
# Revision: 0
# Processed by: cddbd v1.4PL0 Copyright (c) Steve Scherf et al.
# Submitted via: CdAid 2001.05.15.01
#
DISCID=60085f07
DTITLE=Robert Cray - Live in Springfield, Mass.
DYEAR=1900
DGENRE=
TTITLE0=(I Guess) I Showed Her
TTITLE1=Smoking Gun
TTITLE2=More Than I Can Stand
TTITLE3=Acting This Way
TTITLE4=Don´t You Even Care
TTITLE5=Don´t Be Afraid Of The Dark
TTITLE6=Playing In The Dirt
EXTD=
EXTT0=
EXTT1=
EXTT2=
EXTT3=
EXTT4=
EXTT5=
EXTT6=
PLAYORDER=
